<?xml version="1.0" encoding="UTF-8" standalone="no"?>
<!-- Created with Inkscape (http://www.inkscape.org/) -->

<svg
   width="110"
   height="470"
   viewBox="0 0 29.104185 124.35413"
   version="1.1"
   id="svg5"
   xml:space="preserve"
   sodipodi:docname="hand.svg"
   inkscape:version="1.2.2 (732a01da63, 2022-12-09)"
   xmlns:inkscape="http://www.inkscape.org/namespaces/inkscape"
   xmlns:sodipodi="http://sodipodi.sourceforge.net/DTD/sodipodi-0.dtd"
   xmlns="http://www.w3.org/2000/svg"
   xmlns:svg="http://www.w3.org/2000/svg"><sodipodi:namedview
     id="namedview7"
     pagecolor="#ffffff"
     bordercolor="#000000"
     borderopacity="0.25"
     inkscape:showpageshadow="2"
     inkscape:pageopacity="0.0"
     inkscape:pagecheckerboard="0"
     inkscape:deskcolor="#d1d1d1"
     inkscape:document-units="mm"
     showgrid="false"
     inkscape:zoom="1"
     inkscape:cx="-394"
     inkscape:cy="228.5"
     inkscape:window-width="1920"
     inkscape:window-height="1001"
     inkscape:window-x="-9"
     inkscape:window-y="-9"
     inkscape:window-maximized="1"
     inkscape:current-layer="layer1"
     showguides="true" /><defs
     id="defs2"><marker
       style="overflow:visible"
       id="marker3723"
       refX="0"
       refY="0"
       orient="auto-start-reverse"
       inkscape:stockid="RoundedArrow"
       markerWidth="2"
       markerHeight="1.6666666"
       viewBox="0 0 6.1347524 5.9304951"
       inkscape:isstock="true"
       inkscape:collect="always"
       preserveAspectRatio="xMidYMid"><path
         transform="scale(0.7)"
         d="m -0.21114562,-4.1055728 6.42229122,3.21114561 a 1,1 90 0 1 0,1.78885438 L -0.21114562,4.1055728 A 1.236068,1.236068 31.717474 0 1 -2,3 v -6 a 1.236068,1.236068 148.28253 0 1 1.78885438,-1.1055728 z"
         style="fill:context-stroke;fill-rule:evenodd;stroke:none"
         id="path3721" /></marker><marker
       style="overflow:visible"
       id="marker3723-4"
       refX="0"
       refY="0"
       orient="auto-start-reverse"
       inkscape:stockid="RoundedArrow"
       markerWidth="2"
       markerHeight="1.6666666"
       viewBox="0 0 6.1347524 5.9304951"
       inkscape:isstock="true"
       inkscape:collect="always"
       preserveAspectRatio="xMidYMid"><path
         transform="scale(0.7)"
         d="m -0.21114562,-4.1055728 6.42229122,3.21114561 a 1,1 90 0 1 0,1.78885438 L -0.21114562,4.1055728 A 1.236068,1.236068 31.717474 0 1 -2,3 v -6 a 1.236068,1.236068 148.28253 0 1 1.78885438,-1.1055728 z"
         style="fill:context-stroke;fill-rule:evenodd;stroke:none"
         id="path3721-1" /></marker></defs><g
     inkscape:label="Слой 1"
     inkscape:groupmode="layer"
     id="layer1"><g
       id="g3804"
       transform="matrix(-0.60000001,0,0,-0.60000001,28.839636,70.027971)"><path
         style="fill:none;stroke:#000000;stroke-width:3.805;stroke-linecap:round;stroke-dasharray:none;stroke-dashoffset:32.9254;stroke-opacity:1"
         id="path1789-4"
         sodipodi:type="arc"
         sodipodi:cx="25.266479"
         sodipodi:cy="51.352356"
         sodipodi:rx="4.2495899"
         sodipodi:ry="4.2495899"
         sodipodi:start="0.10002005"
         sodipodi:end="3.4768622"
         sodipodi:arc-type="arc"
         d="M 29.494831,51.776692 A 4.2495899,4.2495899 0 0 1 26.704325,55.351308 4.2495899,4.2495899 0 0 1 22.276466,54.372096 4.2495899,4.2495899 0 0 1 21.2535,49.95414"
         sodipodi:open="true"
         transform="rotate(-1.5463544)" /><path
         id="path304"
         style="fill:#000000;stroke-width:0.184465"
         d="M 20.342428,0.19947103 C 15.259261,0.1982599 10.176543,0.2784133 9.8851847,0.4418335 8.4865647,1.2263086 2.2164759,9.7892043 1.3673584,12.074198 0.00388324,15.743371 -0.24798556,31.931635 1.019576,34.43304 c 1.217289,2.402211 4.050243,3.658976 6.7107015,2.97708 l 0.5818766,-0.149345 0.2175578,0.659391 c 0.388556,1.177341 1.5373481,2.413219 2.8380701,3.05356 0.812041,0.497433 1.505621,0.724912 2.452046,0.586011 0.693537,-1.45e-4 1.624394,-0.132265 2.068608,-0.294039 l 0.807703,-0.294039 0.76016,0.807703 c 0.893772,0.949805 1.966635,1.531573 3.286104,1.781803 0.523145,0.09921 0.975514,0.205008 1.005624,0.235128 0.03012,0.03012 -0.145165,1.129304 -0.389641,2.442745 l -0.334863,1.800407 -0.155029,0.473873 c 1.133859,0.124479 2.295746,0.993301 3.558956,1.28881 l 0.116785,-0.599444 C 25.261091,45.27595 26.928068,36.21039 27.076896,35.463987 27.732931,32.17392 26.292033,30.34996 24.396956,32.071429 l -0.558105,0.507463 -0.65474,3.592029 c -0.359861,1.97586 -0.695775,3.634623 -0.746725,3.685563 -0.345172,0.345169 -1.58753,0.05225 -2.146122,-0.505912 l -0.59893,-0.598413 -0.09198,-4.071587 -0.0925,-4.071586 -0.517281,-0.444934 c -0.919366,-0.789933 -2.310407,-0.497417 -2.873726,0.604098 -0.122995,0.240516 -0.206189,1.452242 -0.206189,3.006535 0,3.816023 -0.89311,4.916639 -3.105237,3.825606 -0.826932,-0.407848 -0.952913,-0.984124 -0.952913,-4.364075 V 30.094287 L 11.335225,29.514994 C 10.916767,29.046665 10.666932,28.932338 10.026778,28.915548 L 9.2350952,28.894877 8.6992106,29.494324 8.163326,30.094287 v 1.11311 c 0,2.243239 -1.4615593,3.380724 -3.0778483,2.395203 C 3.9954792,32.937983 4.0119613,33.072107 4.0261108,24.923543 4.0464608,13.208349 3.9724659,13.449302 9.7642619,6.1541463 l 1.7942061,-2.2598104 8.770524,0.010335 8.771041,0.00982 0.381888,0.4971273 c 3.185482,4.1482285 9.448236,15.3826098 13.572299,24.3463178 1.295341,2.815453 0.316391,5.019848 -2.228805,5.019848 -1.542587,0 -1.913948,-0.361733 -3.7915,-3.692798 -1.877503,-3.330977 -2.680225,-3.92722 -4.064868,-3.01997 -1.711327,9.557276 -4.047315,22.849948 -3.980086,23.630615 1.318159,0.324343 2.676714,0.238141 3.750159,0.363285 l 1.134298,-8.370549 c 0.561424,-4.14331 1.125093,-7.724039 1.197343,-7.964371 l 0.131258,-0.436666 0.453719,0.676444 C 39.45875,40.632862 48.859571,36.109448 47.246729,29.38632 46.120599,24.692153 33.055797,1.6981517 30.803805,0.44700114 30.509402,0.28352544 25.42559,0.20068215 20.342428,0.19947103 Z"
         sodipodi:nodetypes="sscsccccccccsscccccccccccccccssssccccccssccccccssscccccccccs" /><path
         style="fill:none;stroke:#000000;stroke-width:2.7;stroke-linecap:round;stroke-dasharray:none;stroke-dashoffset:32.9254;stroke-opacity:1"
         id="path1789"
         sodipodi:type="arc"
         sodipodi:cx="25.75717"
         sodipodi:cy="55.505066"
         sodipodi:rx="7.2060809"
         sodipodi:ry="7.2060809"
         sodipodi:start="5.4285908"
         sodipodi:end="4.2173056"
         sodipodi:open="true"
         sodipodi:arc-type="arc"
         d="m 30.488138,50.069485 a 7.2060809,7.2060809 0 0 1 1.868131,8.330317 7.2060809,7.2060809 0 0 1 -7.394176,4.267348 7.2060809,7.2060809 0 0 1 -6.278229,-5.785148 7.2060809,7.2060809 0 0 1 3.64966,-7.717776" /><circle
         style="fill:#000000;stroke:none;stroke-width:3.52186;stroke-linecap:round;stroke-dasharray:none;stroke-dashoffset:32.9254;stroke-opacity:1"
         id="path2794"
         cx="9.9880209"
         cy="29.9806"
         r="1.8511717" /><circle
         style="fill:#000000;stroke:none;stroke-width:3.52186;stroke-linecap:round;stroke-dasharray:none;stroke-dashoffset:32.9254;stroke-opacity:1"
         id="path2794-7"
         cx="17.727083"
         cy="31.038931"
         r="1.8511717" /></g><path
       style="fill:none;stroke:#000000;stroke-width:2.283;stroke-linecap:round;stroke-dasharray:none;stroke-dashoffset:32.9254;stroke-opacity:1"
       id="path1789-4-6"
       sodipodi:type="arc"
       sodipodi:cx="13.363014"
       sodipodi:cy="109.52233"
       sodipodi:rx="2.5497539"
       sodipodi:ry="2.5497539"
       sodipodi:start="0.10002005"
       sodipodi:end="3.4768622"
       sodipodi:arc-type="arc"
       d="m 15.900025,109.77693 a 2.5497539,2.5497539 0 0 1 -1.674303,2.14477 2.5497539,2.5497539 0 0 1 -2.656716,-0.58752 2.5497539,2.5497539 0 0 1 -0.61378,-2.65078"
       sodipodi:open="true"
       transform="rotate(-1.5463544)" /><path
       id="path304-2"
       style="fill:#000000;stroke-width:0.110679"
       d="m 12.533315,78.850379 c -3.0499,-7.2e-4 -6.0995309,0.04736 -6.2743456,0.145418 C 5.4197974,79.466482 1.657744,84.604219 1.1482735,85.975215 0.33018837,88.176719 0.17906709,97.889678 0.93960406,99.390521 1.6699775,100.83184 3.3697499,101.5859 4.966025,101.17676 l 0.349126,-0.0896 0.1305347,0.39564 c 0.2331336,0.7064 0.9224086,1.44793 1.7028418,1.83213 0.4872246,0.29847 0.9033726,0.43495 1.4712276,0.35161 0.4161223,-8e-5 0.9746365,-0.0794 1.2411649,-0.17642 l 0.484622,-0.17642 0.456096,0.48462 c 0.536263,0.56988 1.179981,0.91894 1.971662,1.06908 0.313887,0.0595 0.585309,0.123 0.603375,0.14108 0.01807,0.0181 -0.0871,0.67758 -0.233785,1.46564 l -0.200918,1.08025 -0.09302,0.28432 c 0.680315,0.0747 1.377447,0.59599 2.135373,0.77329 l 0.07007,-0.35967 c 0.430114,-2.35603 1.4303,-7.79537 1.519597,-8.24321 0.393621,-1.974041 -0.470918,-3.068417 -1.607964,-2.035536 l -0.334863,0.304478 -0.392844,2.155218 c -0.215917,1.18551 -0.417465,2.18077 -0.448035,2.21133 -0.207103,0.2071 -0.952518,0.0314 -1.287673,-0.30355 l -0.359358,-0.35904 -0.05519,-2.44295 -0.0555,-2.442952 -0.310369,-0.26696 c -0.551619,-0.47396 -1.386244,-0.29845 -1.7242354,0.362459 -0.073797,0.144309 -0.1237134,0.871345 -0.1237134,1.803921 0,2.289602 -0.535866,2.949972 -1.8631423,2.295362 -0.4961532,-0.24472 -0.5717418,-0.59049 -0.5717418,-2.618454 V 96.787269 L 7.1289933,96.439693 C 6.8779185,96.158696 6.7280175,96.090099 6.3439251,96.080025 l -0.4750094,-0.0124 -0.3215308,0.359668 -0.3215308,0.359978 v 0.667866 c 0,1.345943 -0.8769356,2.028434 -1.846709,1.437122 C 2.725146,98.493486 2.7350353,98.573961 2.743525,93.684822 2.755735,86.655706 2.711338,86.800278 6.1864157,82.423184 l 1.0765234,-1.355886 5.2623149,0.0062 5.262624,0.0059 0.229133,0.298276 c 1.911289,2.488938 5.668942,9.229566 8.14338,14.607791 0.777204,1.689272 0.189834,3.011909 -1.337283,3.011909 -0.925553,0 -1.148369,-0.21704 -2.2749,-2.215679 -1.126502,-1.998586 -1.608135,-2.356332 -2.438921,-1.811982 -1.026796,5.734357 -2.428389,13.709967 -2.388052,14.178367 0.790896,0.19461 1.606029,0.14288 2.250096,0.21797 l 0.680578,-5.02233 c 0.336855,-2.48599 0.675056,-4.63442 0.718406,-4.778619 l 0.07875,-0.261999 0.272231,0.405866 c 2.281808,3.401442 7.9223,0.687392 6.954595,-3.346472 -0.675673,-2.816508 -8.514554,-16.612909 -9.865749,-17.363599 -0.176642,-0.09809 -3.22693,-0.147792 -6.276827,-0.148518 z"
       sodipodi:nodetypes="sscsccccccccsscccccccccccccccssssccccccssccccccssscccccccccs" /><circle
       style="fill:none;stroke:#000000;stroke-width:1.62;stroke-linecap:round;stroke-dasharray:none;stroke-dashoffset:32.9254;stroke-opacity:1"
       id="path1789-5"
       cx="5.3982315"
       cy="118.85009"
       r="4.3236485" /><circle
       style="fill:none;stroke:#000000;stroke-width:1.62;stroke-linecap:round;stroke-dasharray:none;stroke-dashoffset:32.9254;stroke-opacity:1"
       id="path1789-5-0"
       cx="23.705935"
       cy="118.85009"
       r="4.3236485" /><circle
       style="fill:#000000;stroke:none;stroke-width:2.11312;stroke-linecap:round;stroke-dasharray:none;stroke-dashoffset:32.9254;stroke-opacity:1"
       id="path2794-4"
       cx="6.3206711"
       cy="96.719048"
       r="1.1107031" /><circle
       style="fill:#000000;stroke:none;stroke-width:2.11312;stroke-linecap:round;stroke-dasharray:none;stroke-dashoffset:32.9254;stroke-opacity:1"
       id="path2794-7-8"
       cx="10.964108"
       cy="97.354042"
       r="1.1107031" /><path
       style="fill:#000000;stroke:#000000;stroke-width:2.03501;stroke-linecap:round;stroke-linejoin:miter;stroke-dasharray:none;stroke-dashoffset:32.9254;stroke-opacity:1;marker-start:url(#marker3723);paint-order:normal"
       d="M 5.4207923,36.725441 H 7.3396527 8.3519493"
       id="path616"
       sodipodi:nodetypes="ccc" /><path
       style="fill:#000000;stroke:#000000;stroke-width:2.03501;stroke-linecap:round;stroke-linejoin:miter;stroke-dasharray:none;stroke-dashoffset:32.9254;stroke-opacity:1;marker-start:url(#marker3723-4);paint-order:normal"
       d="M 21.391578,36.725441 H 19.472719 18.460423"
       id="path616-1"
       sodipodi:nodetypes="ccc" /></g></svg>
