<?xml version="1.0" encoding="UTF-8" standalone="no"?>
<!-- Created with Inkscape (http://www.inkscape.org/) -->

<svg
   width="180"
   height="302"
   viewBox="0 0 47.625025 79.904172"
   version="1.1"
   id="svg5"
   xml:space="preserve"
   sodipodi:docname="hand.svg"
   inkscape:version="1.2.2 (732a01da63, 2022-12-09)"
   xmlns:inkscape="http://www.inkscape.org/namespaces/inkscape"
   xmlns:sodipodi="http://sodipodi.sourceforge.net/DTD/sodipodi-0.dtd"
   xmlns="http://www.w3.org/2000/svg"
   xmlns:svg="http://www.w3.org/2000/svg"><sodipodi:namedview
     id="namedview7"
     pagecolor="#ffffff"
     bordercolor="#000000"
     borderopacity="0.25"
     inkscape:showpageshadow="2"
     inkscape:pageopacity="0.0"
     inkscape:pagecheckerboard="0"
     inkscape:deskcolor="#d1d1d1"
     inkscape:document-units="mm"
     showgrid="false"
     inkscape:zoom="2.0510461"
     inkscape:cx="14.139126"
     inkscape:cy="124.57058"
     inkscape:window-width="1920"
     inkscape:window-height="1001"
     inkscape:window-x="-9"
     inkscape:window-y="-9"
     inkscape:window-maximized="1"
     inkscape:current-layer="layer1" /><defs
     id="defs2"><marker
       style="overflow:visible"
       id="marker3723"
       refX="0"
       refY="0"
       orient="auto-start-reverse"
       inkscape:stockid="RoundedArrow"
       markerWidth="2"
       markerHeight="1.6666666"
       viewBox="0 0 6.1347524 5.9304951"
       inkscape:isstock="true"
       inkscape:collect="always"
       preserveAspectRatio="xMidYMid"><path
         transform="scale(0.7)"
         d="m -0.21114562,-4.1055728 6.42229122,3.21114561 a 1,1 90 0 1 0,1.78885438 L -0.21114562,4.1055728 A 1.236068,1.236068 31.717474 0 1 -2,3 v -6 a 1.236068,1.236068 148.28253 0 1 1.78885438,-1.1055728 z"
         style="fill:context-stroke;fill-rule:evenodd;stroke:none"
         id="path3721" /></marker><marker
       style="overflow:visible"
       id="marker3723-4"
       refX="0"
       refY="0"
       orient="auto-start-reverse"
       inkscape:stockid="RoundedArrow"
       markerWidth="2"
       markerHeight="1.6666666"
       viewBox="0 0 6.1347524 5.9304951"
       inkscape:isstock="true"
       inkscape:collect="always"
       preserveAspectRatio="xMidYMid"><path
         transform="scale(0.7)"
         d="m -0.21114562,-4.1055728 6.42229122,3.21114561 a 1,1 90 0 1 0,1.78885438 L -0.21114562,4.1055728 A 1.236068,1.236068 31.717474 0 1 -2,3 v -6 a 1.236068,1.236068 148.28253 0 1 1.78885438,-1.1055728 z"
         style="fill:context-stroke;fill-rule:evenodd;stroke:none"
         id="path3721-1" /></marker></defs><g
     inkscape:label="Слой 1"
     inkscape:groupmode="layer"
     id="layer1"><path
       style="fill:#000000;stroke-width:0.184465"
       d="M 16.821229,79.656277 C 14.569222,78.40512 1.5043958,55.411612 0.37829433,50.717438 -1.2345578,43.994275 8.1659398,39.470611 11.969071,45.139779 l 0.45385,0.676538 0.131372,-0.436979 c 0.07225,-0.240337 0.610996,-3.824169 1.197214,-7.96407 l 1.065852,-7.527092 -0.573189,-1.050528 c -4.139421,-7.586688 3.681717,-15.662924 11.38061,-11.7518 5.204029,2.597926 4.690952,8.983774 3.532261,11.25641 -0.3411,0.659667 -1.030984,1.634719 -1.533079,2.16678 l -0.912887,0.967384 -0.444508,2.388084 c -0.244476,1.313446 -0.419863,2.412733 -0.389737,2.442858 0.03011,0.03012 0.482804,0.135946 1.005949,0.235159 1.319474,0.250235 2.392032,0.831785 3.285809,1.781595 l 0.760294,0.807949 0.80766,-0.294132 c 0.444214,-0.161774 1.375103,-0.294255 2.06864,-0.2944 l 1.260973,-1.84e-4 1.191122,0.586387 c 1.300727,0.640346 2.449551,1.87649 2.838109,3.053836 l 0.217489,0.658998 0.581658,-0.149088 c 2.660472,-0.681901 5.493568,0.57496 6.710863,2.977181 1.267568,2.50142 1.015932,18.689411 -0.34755,22.358599 -0.849122,2.285007 -7.119478,10.847689 -8.518105,11.632168 -0.582718,0.326842 -20.329723,0.322053 -20.918528,-0.0049 z m 21.039464,-5.706803 c 5.791825,-7.295191 5.718099,-7.054054 5.738449,-18.769308 0.01415,-8.148604 0.03054,-8.014411 -1.059464,-8.679033 -1.616297,-0.985526 -3.07802,0.151905 -3.07802,2.395154 v 1.11304 l -0.535881,0.599758 -0.535881,0.599757 -0.791429,-0.02075 c -0.640154,-0.01679 -0.890305,-0.131425 -1.308768,-0.599759 l -0.517342,-0.579005 v -3.142155 c 0,-3.379966 -0.125766,-3.956052 -0.952703,-4.3639 -2.212137,-1.091038 -3.105523,0.0095 -3.105523,3.825543 0,1.554298 -0.08306,2.7662 -0.206055,3.006716 -0.563324,1.10152 -1.954079,1.393783 -2.87345,0.603845 l -0.517559,-0.444699 -0.09224,-4.071613 -0.09224,-4.071611 -0.598865,-0.598398 c -0.558597,-0.558161 -1.800962,-0.850947 -2.146134,-0.505778 -0.05095,0.05094 -0.387053,1.709238 -0.746914,3.685108 l -0.654286,3.592485 -0.558435,0.507279 c -1.895082,1.721479 -3.33609,-0.102788 -2.680055,-3.39287 0.148828,-0.746408 0.857112,-4.569892 1.573969,-8.496639 l 1.303369,-7.139536 -0.271617,-0.650069 c -0.745164,-1.783432 -3.478332,-1.821939 -4.251488,-0.05989 -0.144988,0.330426 -0.980801,5.664337 -1.857372,11.853137 -1.78554,12.60644 -1.762483,12.482031 -2.388853,12.892445 -1.384648,0.907255 -2.18756,0.310702 -4.065073,-3.020295 -1.8775616,-3.33108 -2.2487249,-3.692574 -3.7913216,-3.692574 -2.5452116,0 -3.5238506,2.204509 -2.2284991,5.019977 4.1240829,8.963753 10.3866597,20.19761 13.5721567,24.345859 l 0.381705,0.497075 8.770893,0.01018 8.770885,0.01017 1.794031,-2.259698 z M 27.130111,26.44975 c 1.598245,-4.593548 -3.404708,-9.275166 -7.797712,-7.29687 -2.340482,1.053988 -3.999015,3.85369 -3.586257,6.053845 l 0.126282,0.673158 0.917231,-0.857962 c 2.944339,-2.754084 7.858827,-2.043707 9.495796,1.372595 0.440324,0.918947 0.541835,0.925585 0.84466,0.05523 z"
       id="path304"
       sodipodi:nodetypes="ccsccscsccccscsscsccsscsssscccsssccccscssssscccscccssccsscsssssccccccsccsscc" /><path
       style="fill:#000000;stroke:#000000;stroke-width:3.39169;stroke-linecap:round;stroke-linejoin:miter;stroke-dasharray:none;stroke-dashoffset:32.9254;stroke-opacity:1;marker-start:url(#marker3723);paint-order:normal"
       d="M 7.9171093,23.981724 H 11.115209 12.80237"
       id="path616"
       sodipodi:nodetypes="ccc" /><path
       style="fill:#000000;stroke:#000000;stroke-width:3.39169;stroke-linecap:round;stroke-linejoin:miter;stroke-dasharray:none;stroke-dashoffset:32.9254;stroke-opacity:1;marker-start:url(#marker3723-4);paint-order:normal"
       d="M 35.064251,23.981724 H 31.866153 30.178992"
       id="path616-1"
       sodipodi:nodetypes="ccc" /></g></svg>
